# Blender v2.62 (sub 0) OBJ File: ''
# www.blender.org
o Cone.002_Cone.003
v 0.641499 -0.407141 0.085848
v -0.299547 -0.692604 0.085848
v -0.433545 -0.620981 0.085848
v -0.550996 -0.524591 0.085848
v -0.647385 -0.407141 0.085848
v -0.778006 0.023462 0.085848
v -0.763113 0.174669 0.085848
v -0.719008 0.320066 0.085848
v 0.757228 -0.127746 0.085848
v 0.713123 -0.273143 0.085848
v 0.545110 -0.524592 0.085848
v 0.427660 -0.620981 0.085848
v -0.154150 -0.736710 0.085848
v -0.719008 -0.273142 0.085848
v -0.763114 -0.127746 0.085848
v -0.647384 0.454064 0.085848
v 0.713123 0.320065 0.085848
v 0.757228 0.174668 0.085848
v 0.772121 0.023461 0.085848
v 0.293661 -0.692604 0.085848
v 0.148265 -0.736710 0.085848
v -0.002943 -0.751603 0.085848
v -0.550995 0.571514 0.085848
v 0.641499 0.454063 0.085848
v 0.545110 0.571514 0.085848
v -0.433544 0.667903 0.085848
v 0.427660 0.667903 0.085848
v -0.299546 0.739527 0.085848
v 0.293661 0.739527 0.085848
v -0.154149 0.783632 0.085848
v -0.002943 0.798525 0.085848
v 0.148265 0.783632 0.085848
vt 0.403480 0.193751
vt 0.431067 0.159732
vt 0.465821 0.139573
vt 0.350353 0.659245
vt 0.358104 0.363551
vt 0.368238 0.297657
vt 0.384213 0.836216
vt 0.493677 0.906735
vt 0.447018 0.897412
vt 0.410065 0.873601
vt 0.505125 0.134049
vt 0.543695 0.143372
vt 0.648447 0.677233
vt 0.641275 0.743127
vt 0.629142 0.800461
vt 0.367178 0.786694
vt 0.356471 0.726938
vt 0.610105 0.847033
vt 0.581559 0.881052
vt 0.541721 0.901210
vt 0.347787 0.586216
vt 0.348255 0.510657
vt 0.351625 0.435472
vt 0.621329 0.254090
vt 0.634756 0.313845
vt 0.643879 0.381539
vt 0.602420 0.204568
vt 0.652141 0.530127
vt 0.651857 0.605311
vt 0.649522 0.454568
vt 0.576726 0.167183
vt 0.382946 0.240323
vn 0.000000 0.000000 -1.000000
s off
f 32/1/1 29/2/1 27/3/1
f 8/4/1 28/5/1 30/6/1
f 8/4/1 30/6/1 15/7/1
f 4/8/1 5/9/1 14/10/1
f 4/8/1 14/10/1 15/7/1
f 27/3/1 25/11/1 24/12/1
f 20/13/1 21/14/1 22/15/1
f 15/7/1 6/16/1 7/17/1
f 15/7/1 7/17/1 8/4/1
f 13/18/1 2/19/1 3/20/1
f 13/18/1 3/20/1 4/8/1
f 16/21/1 23/22/1 26/23/1
f 22/15/1 13/18/1 4/8/1
f 22/15/1 4/8/1 15/7/1
f 8/4/1 16/21/1 26/23/1
f 8/4/1 26/23/1 28/5/1
f 19/24/1 9/25/1 10/26/1
f 19/24/1 10/26/1 18/27/1
f 11/28/1 12/29/1 20/13/1
f 11/28/1 20/13/1 22/15/1
f 10/26/1 1/30/1 11/28/1
f 10/26/1 11/28/1 22/15/1
f 24/12/1 17/31/1 18/27/1
f 24/12/1 18/27/1 10/26/1
f 10/26/1 22/15/1 15/7/1
f 10/26/1 15/7/1 30/6/1
f 32/1/1 27/3/1 24/12/1
f 32/1/1 24/12/1 31/32/1
f 30/6/1 31/32/1 24/12/1
f 30/6/1 24/12/1 10/26/1
