# Blender v2.62 (sub 0) OBJ File: 'logo.blend'
# www.blender.org
o Plane
v -4.492325 1.959585 -0.231960
v -4.492325 0.587154 -0.231960
v -4.856775 0.581837 -0.231960
v -4.856774 1.954268 -0.231960
v -4.495780 2.465204 -0.231960
v -4.504261 2.159594 -0.231960
v -4.852671 2.165222 -0.231960
v -4.855682 2.467028 -0.231960
v -3.747190 1.559833 -0.231960
v -3.747190 0.594082 -0.231960
v -4.077131 0.594082 -0.231960
v -4.094085 1.949796 -0.231960
v -3.739701 1.949415 -0.231960
v -3.679754 1.637818 -0.233841
v -3.736068 1.747325 -0.233841
v -3.637494 1.818298 -0.231960
v -3.577237 1.693019 -0.231960
v -3.480636 1.708790 -0.231960
v -3.544835 1.879413 -0.231960
v -3.389490 1.711054 -0.231960
v -3.437918 1.936878 -0.231960
v -3.281490 1.661601 -0.231960
v -3.310204 1.977781 -0.231960
v -3.217009 1.555285 -0.231960
v -3.157009 1.963465 -0.231960
v -3.195689 1.456677 -0.231960
v -3.053001 1.928379 -0.231960
v -3.016928 1.508093 -0.231960
v -2.942287 1.854569 -0.231960
v -2.839369 1.579377 -0.231960
v -2.852730 1.712944 -0.231960
v -3.024199 0.592706 -0.231960
v -2.849005 0.597753 -0.231960
v -3.200595 0.593332 -0.231960
v -2.710116 1.663361 -0.231960
v -2.687995 1.846604 -0.231960
v -2.583996 1.707912 -0.231960
v -2.557144 1.924271 -0.231960
v -2.464153 1.704054 -0.231960
v -2.444397 1.974818 -0.231960
v -2.362626 1.649159 -0.231960
v -2.316851 1.976695 -0.231960
v -2.180966 1.944870 -0.231960
v -2.316630 1.544004 -0.231960
v -2.082936 1.878826 -0.231960
v -2.303658 1.474835 -0.231960
v -2.124371 1.662998 -0.231960
v -2.307209 0.875764 -0.231960
v -2.198883 1.340684 -0.231960
v -2.124153 1.663030 -0.552344
v -2.198665 1.340716 -0.552344
v -2.306991 0.875796 -0.552344
v -2.303441 1.474867 -0.552344
v -2.082718 1.878858 -0.552344
v -2.316412 1.544036 -0.552344
v -2.180748 1.944901 -0.552344
v -2.316632 1.976727 -0.552344
v -2.362408 1.649191 -0.552344
v -2.444179 1.974850 -0.552344
v -2.463935 1.704085 -0.552344
v -2.556926 1.924303 -0.552344
v -2.583778 1.707943 -0.552344
v -2.687777 1.846636 -0.552344
v -2.709898 1.663393 -0.552344
v -2.852512 1.712976 -0.552344
v -2.839150 1.579408 -0.552344
v -3.023981 0.592738 -0.552344
v -3.200377 0.593364 -0.552344
v -3.195471 1.456709 -0.552344
v -2.848787 0.597785 -0.552344
v -2.942069 1.854601 -0.552344
v -3.052783 1.928411 -0.552344
v -3.156791 1.963497 -0.552344
v -3.216791 1.555317 -0.552344
v -3.309986 1.977813 -0.552344
v -3.281272 1.661633 -0.552344
v -3.437700 1.936910 -0.552344
v -3.389272 1.711086 -0.552344
v -3.544617 1.879445 -0.552344
v -3.480417 1.708822 -0.552344
v -3.637276 1.818329 -0.552344
v -3.577019 1.693050 -0.552344
v -3.735849 1.747357 -0.554225
v -3.679536 1.637849 -0.554225
v -3.739483 1.949447 -0.552344
v -4.093867 1.949828 -0.552344
v -3.746972 1.559864 -0.552344
v -4.076913 0.594114 -0.552344
v -3.746972 0.594114 -0.552344
v -4.852453 2.165254 -0.552344
v -4.855464 2.467060 -0.552344
v -4.495563 2.465236 -0.552344
v -4.504043 2.159626 -0.552344
v -4.856557 0.581869 -0.552344
v -4.856556 1.954300 -0.552344
v -4.492107 1.959616 -0.552344
v -4.492107 0.587186 -0.552344
v -3.016710 1.508125 -0.552344
vt 0.253838 0.786928
vt 0.071613 0.784270
vt 0.071613 0.098054
vt 0.253838 0.100713
vt 0.073665 0.889747
vt 0.247869 0.886933
vt 0.252110 1.039738
vt 0.072159 1.040650
vt 0.461435 0.104177
vt 0.626405 0.104177
vt 0.626405 0.587052
vt 0.452957 0.782034
vt 0.631966 0.680798
vt 0.660123 0.626044
vt 0.630150 0.781843
vt 0.711381 0.653645
vt 0.681253 0.716285
vt 0.759682 0.661531
vt 0.727582 0.746842
vt 0.805255 0.662663
vt 0.781041 0.775575
vt 0.859255 0.637936
vt 0.844898 0.796026
vt 0.891495 0.584778
vt 0.921495 0.788868
vt 0.902155 0.535474
vt 0.973500 0.771325
vt 0.991536 0.561182
vt 1.028857 0.734420
vt 0.028857 0.734420
vt -0.008464 0.561182
vt 0.080316 0.596824
vt 0.073635 0.663608
vt -0.012100 0.103489
vt 0.075497 0.106012
vt 0.899703 0.103802
vt 0.987900 0.103489
vt 0.144942 0.638816
vt 0.156003 0.730438
vt 0.208002 0.661092
vt 0.221428 0.769271
vt 0.267924 0.659162
vt 0.277801 0.794545
vt 0.318687 0.631715
vt 0.341575 0.795483
vt 0.341685 0.579138
vt 0.409517 0.779570
vt 0.458532 0.746549
vt 0.348171 0.544553
vt 0.437815 0.638635
vt 0.346395 0.245018
vt 0.400558 0.477478
vt 0.638635 0.308921
vt 0.477478 0.308921
vt 0.477493 0.148729
vt 0.638651 0.148729
vt 0.245018 0.308921
vt 0.245033 0.148729
vt 0.544553 0.308921
vt 0.544569 0.148729
vt 0.746549 0.308921
vt 0.746565 0.148729
vt 0.579138 0.308921
vt 0.579154 0.148729
vt 0.409517 0.308921
vt 0.458532 0.308921
vt 0.458641 0.148729
vt 0.409626 0.148729
vt 0.341575 0.308921
vt 0.341684 0.148729
vt 0.631715 0.308921
vt 0.631731 0.148729
vt 0.277801 0.308921
vt 0.277910 0.148729
vt 0.318687 0.308921
vt 0.267924 0.308921
vt 0.268033 0.148729
vt 0.318796 0.148729
vt 0.221428 0.308921
vt 0.221537 0.148729
vt 0.208002 0.308921
vt 0.208111 0.148729
vt 0.156003 0.308921
vt 0.156112 0.148729
vt 0.144942 0.308921
vt 0.145051 0.148729
vt 0.073635 0.308921
vt 0.073744 0.148729
vt 0.080316 0.308921
vt 0.080425 0.148729
vt 0.987900 0.308921
vt 0.899703 0.308921
vt 0.899812 0.148729
vt 0.988010 0.148729
vt 0.103802 0.308921
vt 0.535474 0.308921
vt 0.535490 0.148729
vt 0.103818 0.148729
vt 0.596824 0.308921
vt 0.106012 0.308921
vt 0.106028 0.148729
vt 0.596840 0.148729
vt 0.075497 0.308921
vt -0.012100 0.308921
vt -0.011990 0.148729
vt 0.075606 0.148729
vt 0.734420 0.308921
vt 0.663608 0.308921
vt 0.663624 0.148729
vt 0.734436 0.148729
vt 0.973500 0.308921
vt 1.028857 0.308921
vt 1.028966 0.148729
vt 0.973608 0.148729
vt 0.921495 0.308921
vt 0.921605 0.148729
vt 0.584778 0.308921
vt 0.584794 0.148729
vt 0.844898 0.308921
vt 0.845007 0.148729
vt 0.637936 0.308921
vt 0.637952 0.148729
vt 0.781041 0.308921
vt 0.781150 0.148729
vt 0.859255 0.308921
vt 0.805255 0.308921
vt 0.805364 0.148729
vt 0.859364 0.148729
vt 0.727582 0.308921
vt 0.727691 0.148729
vt 0.759682 0.308921
vt 0.759791 0.148729
vt 0.681253 0.308921
vt 0.681362 0.148729
vt 0.711381 0.308921
vt 0.711490 0.148729
vt 0.631966 0.307981
vt 0.632075 0.147789
vt 0.660123 0.307981
vt 0.660232 0.147789
vt 0.781843 0.308921
vt 0.680798 0.307981
vt 0.680814 0.147789
vt 0.781859 0.148729
vt 0.452957 0.308921
vt 0.630150 0.308921
vt 0.630259 0.148729
vt 0.453066 0.148729
vt 0.626044 0.307981
vt 0.587052 0.308921
vt 0.587068 0.148729
vt 0.626060 0.147789
vt 0.104177 0.308921
vt 0.782034 0.308921
vt 0.782050 0.148729
vt 0.104193 0.148729
vt 0.626405 0.308921
vt 0.461435 0.308921
vt 0.461544 0.148729
vt 0.626514 0.148729
vt 0.889747 0.308921
vt 1.040650 0.308921
vt 1.040666 0.148729
vt 0.889763 0.148729
vt 0.072159 0.308921
vt 0.252110 0.308921
vt 0.252219 0.148729
vt 0.072268 0.148729
vt 0.039738 0.308921
vt -0.113067 0.308921
vt -0.113051 0.148729
vt 0.039754 0.148729
vt 0.247869 0.308921
vt 0.073665 0.308921
vt 0.073774 0.148729
vt 0.247978 0.148729
vt 0.098054 0.308921
vt 0.784270 0.308921
vt 0.784286 0.148729
vt 0.098070 0.148729
vt 0.071613 0.308921
vt 0.253838 0.308921
vt 0.253947 0.148729
vt 0.071722 0.148729
vt 0.786928 0.308921
vt 0.100713 0.308921
vt 0.100729 0.148729
vt 0.786944 0.148729
vt 0.437924 0.638651
vt 0.400667 0.477493
vt 0.346504 0.245033
vt 0.348280 0.544569
vt 0.458641 0.746565
vt 0.341794 0.579154
vt 0.409626 0.779586
vt 0.341684 0.795499
vt 0.318796 0.631731
vt 0.277910 0.794561
vt 0.268033 0.659178
vt 0.221537 0.769287
vt 0.208111 0.661107
vt 0.156112 0.730454
vt 0.145051 0.638832
vt 0.073744 0.663624
vt 0.080425 0.596840
vt 0.991645 0.561198
vt 0.988010 0.103505
vt 0.899812 0.103818
vt 0.902264 0.535490
vt 0.075606 0.106028
vt -0.011990 0.103505
vt -0.008355 0.561198
vt 0.028966 0.734436
vt 0.973608 0.771341
vt 1.028966 0.734436
vt 0.921605 0.788884
vt 0.891604 0.584794
vt 0.845007 0.796042
vt 0.859364 0.637952
vt 0.781150 0.775590
vt 0.805364 0.662679
vt 0.727691 0.746858
vt 0.759791 0.661547
vt 0.681362 0.716300
vt 0.711490 0.653661
vt 0.632075 0.680814
vt 0.660232 0.626060
vt 0.453066 0.782050
vt 0.630259 0.781859
vt 0.626514 0.587068
vt 0.461544 0.104193
vt 0.626514 0.104193
vt 0.073774 0.889763
vt 0.072268 1.040666
vt 0.252219 1.039754
vt 0.247978 0.886949
vt 0.253947 0.786944
vt 0.253947 0.100729
vt 0.071722 0.098070
vt 0.071722 0.784286
vn -0.000000 0.000000 1.000000
vn 0.010573 0.009405 0.999900
vn 0.017489 0.008994 0.999807
vn -0.000010 -0.009308 0.999957
vn -0.014264 -0.007082 0.999873
vn 0.974303 -0.225239 0.000640
vn 0.973913 -0.226921 0.000641
vn -0.999982 0.005927 -0.000680
vn 0.982066 -0.188535 0.000649
vn -0.982866 -0.184318 -0.000687
vn 0.558736 0.829346 0.000462
vn 0.228038 0.973652 0.000252
vn -0.916186 -0.400753 -0.000663
vn -0.014710 0.999892 0.000089
vn -0.475621 -0.879650 -0.000411
vn -0.409097 0.912491 -0.000188
vn -0.032176 -0.999482 -0.000121
vn -0.510413 0.859929 -0.000262
vn 0.333068 -0.942903 0.000133
vn -0.630060 0.776546 -0.000352
vn 0.544854 -0.838531 0.000288
vn -0.003549 -0.999994 -0.000101
vn -0.999984 0.005682 -0.000680
vn 0.999952 -0.009816 0.000680
vn 0.028797 -0.999585 -0.000079
vn 0.845193 0.534461 0.000629
vn 0.554700 0.832050 0.000460
vn 0.319645 0.947537 0.000312
vn -0.977416 -0.211325 -0.000686
vn 0.093046 0.995662 0.000162
vn -0.855028 -0.518581 -0.000633
vn -0.305014 0.952348 -0.000113
vn -0.416329 -0.909214 -0.000373
vn -0.473422 0.880835 -0.000235
vn 0.024827 -0.999692 -0.000082
vn -0.550595 0.834772 -0.000292
vn 0.161132 -0.986933 0.000012
vn -0.584300 0.811538 -0.000317
vn 0.474096 -0.880473 0.000235
vn 0.999838 0.017969 0.000683
vn 0.001075 0.999999 0.000100
vn 0.756419 -0.654087 0.000450
vn -0.999922 -0.012505 -0.000681
vn 1.000000 0.000000 0.000681
vn 0.000000 -1.000000 -0.000099
vn -0.999950 -0.009978 -0.000681
vn 0.005066 0.999987 0.000102
vn 0.999615 -0.027740 0.000678
vn -0.016152 -0.999870 -0.000110
vn -1.000000 0.000001 -0.000681
vn -0.014586 0.999894 0.000089
vn 1.000000 0.000000 0.000680
vn 0.014587 -0.999894 -0.000089
vn 0.000000 -0.000000 -1.000000
vn 0.014263 0.007082 -0.999873
vn 0.000010 0.009308 -0.999957
vn -0.017489 -0.008994 -0.999807
vn -0.010573 -0.009405 -0.999900
s off
f 1/1/1 4/2/1 3/3/1
f 1/1/1 3/3/1 2/4/1
f 7/5/1 6/6/1 5/7/1
f 7/5/1 5/7/1 8/8/1
f 11/9/1 10/10/1 9/11/1
f 11/9/1 9/11/1 12/12/1
f 15/13/2 12/12/2 9/11/2
f 14/14/3 15/13/3 9/11/3
f 15/13/4 13/15/4 12/12/4
f 15/13/5 14/14/5 17/16/5
f 15/13/5 17/16/5 16/17/5
f 16/17/1 17/16/1 18/18/1
f 16/17/1 18/18/1 19/19/1
f 19/19/1 18/18/1 20/20/1
f 19/19/1 20/20/1 21/21/1
f 21/21/1 20/20/1 22/22/1
f 21/21/1 22/22/1 23/23/1
f 23/23/1 22/22/1 24/24/1
f 23/23/1 24/24/1 25/25/1
f 25/25/1 24/24/1 26/26/1
f 25/25/1 26/26/1 27/27/1
f 27/27/1 26/26/1 28/28/1
f 27/27/1 28/28/1 29/29/1
f 29/30/1 28/31/1 30/32/1
f 29/30/1 30/32/1 31/33/1
f 30/32/1 28/31/1 32/34/1
f 30/32/1 32/34/1 33/35/1
f 28/28/1 26/26/1 34/36/1
f 28/28/1 34/36/1 32/37/1
f 31/33/1 30/32/1 35/38/1
f 31/33/1 35/38/1 36/39/1
f 36/39/1 35/38/1 37/40/1
f 36/39/1 37/40/1 38/41/1
f 38/41/1 37/40/1 39/42/1
f 38/41/1 39/42/1 40/43/1
f 40/43/1 39/42/1 41/44/1
f 40/43/1 41/44/1 42/45/1
f 42/45/1 41/44/1 44/46/1
f 42/45/1 44/46/1 43/47/1
f 43/47/1 44/46/1 45/48/1
f 45/48/1 44/46/1 46/49/1
f 45/48/1 46/49/1 47/50/1
f 47/50/1 46/49/1 48/51/1
f 47/50/1 48/51/1 49/52/1
f 47/53/6 49/54/6 51/55/6
f 47/53/6 51/55/6 50/56/6
f 49/54/7 48/57/7 52/58/7
f 49/54/7 52/58/7 51/55/7
f 48/57/8 46/59/8 53/60/8
f 48/57/8 53/60/8 52/58/8
f 45/61/9 47/53/9 50/56/9
f 45/61/9 50/56/9 54/62/9
f 46/59/10 44/63/10 55/64/10
f 46/59/10 55/64/10 53/60/10
f 43/65/11 45/66/11 54/67/11
f 43/65/11 54/67/11 56/68/11
f 42/69/12 43/65/12 56/68/12
f 42/69/12 56/68/12 57/70/12
f 44/63/13 41/71/13 58/72/13
f 44/63/13 58/72/13 55/64/13
f 40/73/14 42/69/14 57/70/14
f 40/73/14 57/70/14 59/74/14
f 41/75/15 39/76/15 60/77/15
f 41/75/15 60/77/15 58/78/15
f 38/79/16 40/73/16 59/74/16
f 38/79/16 59/74/16 61/80/16
f 39/76/17 37/81/17 62/82/17
f 39/76/17 62/82/17 60/77/17
f 36/83/18 38/79/18 61/80/18
f 36/83/18 61/80/18 63/84/18
f 37/81/19 35/85/19 64/86/19
f 37/81/19 64/86/19 62/82/19
f 31/87/20 36/83/20 63/84/20
f 31/87/20 63/84/20 65/88/20
f 35/85/21 30/89/21 66/90/21
f 35/85/21 66/90/21 64/86/21
f 32/91/22 34/92/22 68/93/22
f 32/91/22 68/93/22 67/94/22
f 34/95/23 26/96/23 69/97/23
f 34/95/23 69/97/23 68/98/23
f 30/99/24 33/100/24 70/101/24
f 30/99/24 70/101/24 66/102/24
f 33/103/25 32/104/25 67/105/25
f 33/103/25 67/105/25 70/106/25
f 29/107/26 31/108/26 65/109/26
f 29/107/26 65/109/26 71/110/26
f 27/111/27 29/112/27 71/113/27
f 27/111/27 71/113/27 72/114/27
f 25/115/28 27/111/28 72/114/28
f 25/115/28 72/114/28 73/116/28
f 26/96/29 24/117/29 74/118/29
f 26/96/29 74/118/29 69/97/29
f 23/119/30 25/115/30 73/116/30
f 23/119/30 73/116/30 75/120/30
f 24/117/31 22/121/31 76/122/31
f 24/117/31 76/122/31 74/118/31
f 21/123/32 23/119/32 75/120/32
f 21/123/32 75/120/32 77/124/32
f 22/125/33 20/126/33 78/127/33
f 22/125/33 78/127/33 76/128/33
f 19/129/34 21/123/34 77/124/34
f 19/129/34 77/124/34 79/130/34
f 20/126/35 18/131/35 80/132/35
f 20/126/35 80/132/35 78/127/35
f 16/133/36 19/129/36 79/130/36
f 16/133/36 79/130/36 81/134/36
f 18/131/37 17/135/37 82/136/37
f 18/131/37 82/136/37 80/132/37
f 15/137/38 16/133/38 81/134/38
f 15/137/38 81/134/38 83/138/38
f 17/135/39 14/139/39 84/140/39
f 17/135/39 84/140/39 82/136/39
f 13/141/40 15/142/40 83/143/40
f 13/141/40 83/143/40 85/144/40
f 12/145/41 13/146/41 85/147/41
f 12/145/41 85/147/41 86/148/41
f 14/149/42 9/150/42 87/151/42
f 14/149/42 87/151/42 84/152/42
f 11/153/43 12/154/43 86/155/43
f 11/153/43 86/155/43 88/156/43
f 9/150/44 10/153/44 89/156/44
f 9/150/44 89/156/44 87/151/44
f 10/157/45 11/158/45 88/159/45
f 10/157/45 88/159/45 89/160/45
f 7/161/46 8/162/46 91/163/46
f 7/161/46 91/163/46 90/164/46
f 8/165/47 5/166/47 92/167/47
f 8/165/47 92/167/47 91/168/47
f 5/169/48 6/170/48 93/171/48
f 5/169/48 93/171/48 92/172/48
f 6/173/49 7/174/49 90/175/49
f 6/173/49 90/175/49 93/176/49
f 3/177/50 4/178/50 95/179/50
f 3/177/50 95/179/50 94/180/50
f 4/181/51 1/182/51 96/183/51
f 4/181/51 96/183/51 95/184/51
f 1/185/52 2/186/52 97/187/52
f 1/185/52 97/187/52 96/188/52
f 2/182/53 3/181/53 94/184/53
f 2/182/53 94/184/53 97/183/53
f 50/189/54 51/190/54 52/191/54
f 50/189/54 52/191/54 53/192/54
f 54/193/54 50/189/54 53/192/54
f 54/193/54 53/192/54 55/194/54
f 56/195/54 54/193/54 55/194/54
f 57/196/54 56/195/54 55/194/54
f 57/196/54 55/194/54 58/197/54
f 59/198/54 57/196/54 58/197/54
f 59/198/54 58/197/54 60/199/54
f 61/200/54 59/198/54 60/199/54
f 61/200/54 60/199/54 62/201/54
f 63/202/54 61/200/54 62/201/54
f 63/202/54 62/201/54 64/203/54
f 65/204/54 63/202/54 64/203/54
f 65/204/54 64/203/54 66/205/54
f 98/206/54 67/207/54 68/208/54
f 98/206/54 68/208/54 69/209/54
f 66/205/54 70/210/54 67/211/54
f 66/205/54 67/211/54 98/212/54
f 71/213/54 65/204/54 66/205/54
f 71/213/54 66/205/54 98/212/54
f 72/214/54 71/215/54 98/206/54
f 72/214/54 98/206/54 69/209/54
f 73/216/54 72/214/54 69/209/54
f 73/216/54 69/209/54 74/217/54
f 75/218/54 73/216/54 74/217/54
f 75/218/54 74/217/54 76/219/54
f 77/220/54 75/218/54 76/219/54
f 77/220/54 76/219/54 78/221/54
f 79/222/54 77/220/54 78/221/54
f 79/222/54 78/221/54 80/223/54
f 81/224/54 79/222/54 80/223/54
f 81/224/54 80/223/54 82/225/54
f 83/226/55 81/224/55 82/225/55
f 83/226/55 82/225/55 84/227/55
f 83/226/56 86/228/56 85/229/56
f 84/227/57 87/230/57 83/226/57
f 83/226/58 87/230/58 86/228/58
f 88/231/54 86/228/54 87/230/54
f 88/231/54 87/230/54 89/232/54
f 90/233/54 91/234/54 92/235/54
f 90/233/54 92/235/54 93/236/54
f 96/237/54 97/238/54 94/239/54
f 96/237/54 94/239/54 95/240/54
